<svg xmlns="http://www.w3.org/2000/svg" xmlns:xlink="http://www.w3.org/1999/xlink" width="200" zoomAndPan="magnify" preserveAspectRatio="xMidYMid meet" version="1.0" viewBox="78.58 137.75 221.93 56.71"><defs><g/></defs><g fill="#c73659" fill-opacity="1"><g transform="translate(78.140625, 167.747274)"><g><path d="M 14.6875 0 C 11.53125 0 9.070312 -0.65625 7.3125 -1.96875 C 5.5625 -3.289062 4.6875 -5.5 4.6875 -8.59375 L 4.6875 -13.796875 L 1.515625 -13.796875 C 1.222656 -13.796875 0.96875 -13.898438 0.75 -14.109375 C 0.539062 -14.328125 0.4375 -14.582031 0.4375 -14.875 L 0.4375 -19.71875 C 0.4375 -20.007812 0.539062 -20.257812 0.75 -20.46875 C 0.96875 -20.6875 1.222656 -20.796875 1.515625 -20.796875 L 4.6875 -20.796875 L 4.6875 -27.3125 C 4.6875 -27.613281 4.789062 -27.867188 5 -28.078125 C 5.207031 -28.296875 5.460938 -28.40625 5.765625 -28.40625 L 12.765625 -28.40625 C 13.054688 -28.40625 13.304688 -28.296875 13.515625 -28.078125 C 13.734375 -27.867188 13.84375 -27.613281 13.84375 -27.3125 L 13.84375 -20.796875 L 18.875 -20.796875 C 19.164062 -20.796875 19.414062 -20.6875 19.625 -20.46875 C 19.84375 -20.257812 19.953125 -20.007812 19.953125 -19.71875 L 19.953125 -14.875 C 19.953125 -14.582031 19.84375 -14.328125 19.625 -14.109375 C 19.414062 -13.898438 19.164062 -13.796875 18.875 -13.796875 L 13.84375 -13.796875 L 13.84375 -9.40625 C 13.84375 -8.070312 14.414062 -7.40625 15.5625 -7.40625 L 19.203125 -7.40625 C 19.492188 -7.40625 19.742188 -7.296875 19.953125 -7.078125 C 20.171875 -6.867188 20.28125 -6.613281 20.28125 -6.3125 L 20.28125 -1.078125 C 20.28125 -0.785156 20.171875 -0.53125 19.953125 -0.3125 C 19.742188 -0.101562 19.492188 0 19.203125 0 Z M 14.6875 0 "/></g></g></g><g fill="#c73659" fill-opacity="1"><g transform="translate(99.418509, 167.747274)"><g><path d="M 3.078125 -23 C 2.785156 -23 2.53125 -23.101562 2.3125 -23.3125 C 2.101562 -23.53125 2 -23.785156 2 -24.078125 L 2 -28.921875 C 2 -29.210938 2.101562 -29.460938 2.3125 -29.671875 C 2.53125 -29.890625 2.785156 -30 3.078125 -30 L 9.84375 -30 C 10.132812 -30 10.382812 -29.890625 10.59375 -29.671875 C 10.8125 -29.460938 10.921875 -29.210938 10.921875 -28.921875 L 10.921875 -24.078125 C 10.921875 -23.785156 10.8125 -23.53125 10.59375 -23.3125 C 10.382812 -23.101562 10.132812 -23 9.84375 -23 Z M 2.875 0 C 2.582031 0 2.328125 -0.101562 2.109375 -0.3125 C 1.898438 -0.53125 1.796875 -0.785156 1.796875 -1.078125 L 1.796875 -19.71875 C 1.796875 -20.007812 1.898438 -20.257812 2.109375 -20.46875 C 2.328125 -20.6875 2.582031 -20.796875 2.875 -20.796875 L 10.046875 -20.796875 C 10.335938 -20.796875 10.585938 -20.6875 10.796875 -20.46875 C 11.015625 -20.257812 11.125 -20.007812 11.125 -19.71875 L 11.125 -1.078125 C 11.125 -0.785156 11.015625 -0.53125 10.796875 -0.3125 C 10.585938 -0.101562 10.335938 0 10.046875 0 Z M 2.875 0 "/></g></g></g><g fill="#c73659" fill-opacity="1"><g transform="translate(112.337228, 167.747274)"><g><path d="M 2.875 0 C 2.582031 0 2.328125 -0.101562 2.109375 -0.3125 C 1.898438 -0.53125 1.796875 -0.785156 1.796875 -1.078125 L 1.796875 -19.71875 C 1.796875 -20.007812 1.898438 -20.257812 2.109375 -20.46875 C 2.328125 -20.6875 2.582031 -20.796875 2.875 -20.796875 L 9.484375 -20.796875 C 9.773438 -20.796875 10.023438 -20.6875 10.234375 -20.46875 C 10.453125 -20.257812 10.5625 -20.007812 10.5625 -19.71875 L 10.5625 -18.40625 C 11.125 -19.144531 11.9375 -19.796875 13 -20.359375 C 14.0625 -20.921875 15.257812 -21.203125 16.59375 -21.203125 C 19.445312 -21.203125 21.394531 -20.109375 22.4375 -17.921875 C 23.082031 -18.847656 23.960938 -19.625 25.078125 -20.25 C 26.203125 -20.882812 27.363281 -21.203125 28.5625 -21.203125 C 30.71875 -21.203125 32.484375 -20.460938 33.859375 -18.984375 C 35.234375 -17.503906 35.921875 -15.269531 35.921875 -12.28125 L 35.921875 -1.078125 C 35.921875 -0.785156 35.8125 -0.53125 35.59375 -0.3125 C 35.382812 -0.101562 35.132812 0 34.84375 0 L 27.796875 0 C 27.503906 0 27.25 -0.101562 27.03125 -0.3125 C 26.820312 -0.53125 26.71875 -0.785156 26.71875 -1.078125 L 26.71875 -12.078125 C 26.71875 -12.722656 26.578125 -13.210938 26.296875 -13.546875 C 26.015625 -13.878906 25.625 -14.046875 25.125 -14.046875 C 24.613281 -14.046875 24.222656 -13.878906 23.953125 -13.546875 C 23.691406 -13.210938 23.5625 -12.722656 23.5625 -12.078125 L 23.5625 -1.078125 C 23.5625 -0.785156 23.453125 -0.53125 23.234375 -0.3125 C 23.023438 -0.101562 22.773438 0 22.484375 0 L 15.4375 0 C 15.144531 0 14.890625 -0.101562 14.671875 -0.3125 C 14.460938 -0.53125 14.359375 -0.785156 14.359375 -1.078125 L 14.359375 -12.078125 C 14.359375 -12.722656 14.21875 -13.210938 13.9375 -13.546875 C 13.65625 -13.878906 13.265625 -14.046875 12.765625 -14.046875 C 12.253906 -14.046875 11.859375 -13.867188 11.578125 -13.515625 C 11.296875 -13.171875 11.15625 -12.691406 11.15625 -12.078125 L 11.15625 -1.078125 C 11.15625 -0.785156 11.046875 -0.53125 10.828125 -0.3125 C 10.617188 -0.101562 10.367188 0 10.078125 0 Z M 2.875 0 "/></g></g></g><g fill="#c73659" fill-opacity="1"><g transform="translate(149.853499, 167.747274)"><g><path d="M 12.5625 0.40625 C 8.9375 0.40625 6.125 -0.476562 4.125 -2.25 C 2.125 -4.03125 1.125 -6.734375 1.125 -10.359375 L 1.125 -10.640625 C 1.175781 -14.023438 2.21875 -16.628906 4.25 -18.453125 C 6.289062 -20.285156 9.046875 -21.203125 12.515625 -21.203125 C 15.023438 -21.203125 17.140625 -20.710938 18.859375 -19.734375 C 20.578125 -18.765625 21.847656 -17.457031 22.671875 -15.8125 C 23.503906 -14.175781 23.921875 -12.34375 23.921875 -10.3125 L 23.921875 -9.125 C 23.921875 -8.832031 23.8125 -8.578125 23.59375 -8.359375 C 23.382812 -8.148438 23.132812 -8.046875 22.84375 -8.046875 L 10.921875 -8.046875 L 10.921875 -7.84375 C 10.921875 -7.007812 11.039062 -6.394531 11.28125 -6 C 11.519531 -5.601562 11.921875 -5.40625 12.484375 -5.40625 C 12.691406 -5.40625 12.863281 -5.453125 13 -5.546875 C 13.132812 -5.640625 13.347656 -5.832031 13.640625 -6.125 C 13.878906 -6.363281 14.078125 -6.515625 14.234375 -6.578125 C 14.398438 -6.648438 14.640625 -6.6875 14.953125 -6.6875 L 22.515625 -6.6875 C 22.753906 -6.6875 22.960938 -6.609375 23.140625 -6.453125 C 23.316406 -6.304688 23.40625 -6.113281 23.40625 -5.875 C 23.40625 -5.132812 22.988281 -4.265625 22.15625 -3.265625 C 21.332031 -2.265625 20.097656 -1.398438 18.453125 -0.671875 C 16.816406 0.046875 14.851562 0.40625 12.5625 0.40625 Z M 14.125 -13.046875 L 14.125 -13.078125 C 14.125 -14.753906 13.585938 -15.59375 12.515625 -15.59375 C 11.453125 -15.59375 10.921875 -14.753906 10.921875 -13.078125 L 10.921875 -13.046875 Z M 14.125 -13.046875 "/></g></g></g><g fill="#c73659" fill-opacity="1"><g transform="translate(174.771027, 167.747274)"><g><path d="M 11.5625 0.40625 C 9.15625 0.40625 7.148438 0.09375 5.546875 -0.53125 C 3.953125 -1.164062 2.773438 -1.9375 2.015625 -2.84375 C 1.253906 -3.75 0.875 -4.601562 0.875 -5.40625 C 0.875 -5.664062 0.96875 -5.894531 1.15625 -6.09375 C 1.34375 -6.300781 1.570312 -6.40625 1.84375 -6.40625 L 8.953125 -6.40625 C 9.222656 -6.375 9.476562 -6.285156 9.71875 -6.140625 C 9.957031 -5.992188 10.117188 -5.894531 10.203125 -5.84375 C 10.523438 -5.625 10.804688 -5.460938 11.046875 -5.359375 C 11.285156 -5.253906 11.550781 -5.203125 11.84375 -5.203125 C 12.082031 -5.203125 12.296875 -5.253906 12.484375 -5.359375 C 12.671875 -5.460938 12.765625 -5.609375 12.765625 -5.796875 C 12.765625 -6.066406 12.679688 -6.296875 12.515625 -6.484375 C 12.359375 -6.671875 11.976562 -6.851562 11.375 -7.03125 C 10.78125 -7.21875 9.851562 -7.4375 8.59375 -7.6875 C 6.46875 -8.082031 4.71875 -8.804688 3.34375 -9.859375 C 1.96875 -10.910156 1.28125 -12.410156 1.28125 -14.359375 C 1.28125 -15.535156 1.671875 -16.648438 2.453125 -17.703125 C 3.242188 -18.753906 4.40625 -19.597656 5.9375 -20.234375 C 7.46875 -20.878906 9.289062 -21.203125 11.40625 -21.203125 C 13.476562 -21.203125 15.3125 -20.882812 16.90625 -20.25 C 18.507812 -19.625 19.738281 -18.859375 20.59375 -17.953125 C 21.445312 -17.046875 21.875 -16.195312 21.875 -15.40625 C 21.875 -15.132812 21.78125 -14.898438 21.59375 -14.703125 C 21.40625 -14.503906 21.207031 -14.40625 21 -14.40625 L 14.28125 -14.40625 C 14.039062 -14.40625 13.789062 -14.460938 13.53125 -14.578125 C 13.28125 -14.703125 13.050781 -14.84375 12.84375 -15 C 12.28125 -15.394531 11.785156 -15.59375 11.359375 -15.59375 C 11.148438 -15.59375 10.960938 -15.53125 10.796875 -15.40625 C 10.640625 -15.289062 10.5625 -15.140625 10.5625 -14.953125 C 10.5625 -14.691406 10.644531 -14.472656 10.8125 -14.296875 C 10.988281 -14.128906 11.390625 -13.953125 12.015625 -13.765625 C 12.640625 -13.578125 13.617188 -13.390625 14.953125 -13.203125 C 17.617188 -12.796875 19.585938 -11.957031 20.859375 -10.6875 C 22.128906 -9.425781 22.765625 -8.023438 22.765625 -6.484375 C 22.765625 -4.316406 21.789062 -2.625 19.84375 -1.40625 C 17.894531 -0.195312 15.132812 0.40625 11.5625 0.40625 Z M 11.5625 0.40625 "/></g></g></g><g fill="#c73659" fill-opacity="1"><g transform="translate(198.368686, 167.747274)"><g><path d="M 2.875 0 C 2.582031 0 2.328125 -0.101562 2.109375 -0.3125 C 1.898438 -0.53125 1.796875 -0.785156 1.796875 -1.078125 L 1.796875 -27.3125 C 1.796875 -27.613281 1.898438 -27.867188 2.109375 -28.078125 C 2.328125 -28.296875 2.582031 -28.40625 2.875 -28.40625 L 10.6875 -28.40625 C 10.976562 -28.40625 11.226562 -28.296875 11.4375 -28.078125 C 11.65625 -27.867188 11.765625 -27.613281 11.765625 -27.3125 L 11.765625 -18.71875 C 12.484375 -19.488281 13.367188 -20.09375 14.421875 -20.53125 C 15.472656 -20.976562 16.613281 -21.203125 17.84375 -21.203125 C 19.25 -21.203125 20.550781 -20.875 21.75 -20.21875 C 22.957031 -19.5625 23.929688 -18.546875 24.671875 -17.171875 C 25.421875 -15.804688 25.796875 -14.125 25.796875 -12.125 L 25.796875 -1.078125 C 25.796875 -0.785156 25.6875 -0.53125 25.46875 -0.3125 C 25.257812 -0.101562 25.007812 0 24.71875 0 L 16.875 0 C 16.582031 0 16.328125 -0.101562 16.109375 -0.3125 C 15.898438 -0.53125 15.796875 -0.785156 15.796875 -1.078125 L 15.796875 -11.84375 C 15.796875 -12.5625 15.625 -13.109375 15.28125 -13.484375 C 14.9375 -13.859375 14.441406 -14.046875 13.796875 -14.046875 C 13.160156 -14.046875 12.660156 -13.859375 12.296875 -13.484375 C 11.941406 -13.109375 11.765625 -12.5625 11.765625 -11.84375 L 11.765625 -1.078125 C 11.765625 -0.785156 11.65625 -0.53125 11.4375 -0.3125 C 11.226562 -0.101562 10.976562 0 10.6875 0 Z M 2.875 0 "/></g></g></g><g fill="#c73659" fill-opacity="1"><g transform="translate(225.765966, 167.747274)"><g><path d="M 12.5625 0.40625 C 8.9375 0.40625 6.125 -0.476562 4.125 -2.25 C 2.125 -4.03125 1.125 -6.734375 1.125 -10.359375 L 1.125 -10.640625 C 1.175781 -14.023438 2.21875 -16.628906 4.25 -18.453125 C 6.289062 -20.285156 9.046875 -21.203125 12.515625 -21.203125 C 15.023438 -21.203125 17.140625 -20.710938 18.859375 -19.734375 C 20.578125 -18.765625 21.847656 -17.457031 22.671875 -15.8125 C 23.503906 -14.175781 23.921875 -12.34375 23.921875 -10.3125 L 23.921875 -9.125 C 23.921875 -8.832031 23.8125 -8.578125 23.59375 -8.359375 C 23.382812 -8.148438 23.132812 -8.046875 22.84375 -8.046875 L 10.921875 -8.046875 L 10.921875 -7.84375 C 10.921875 -7.007812 11.039062 -6.394531 11.28125 -6 C 11.519531 -5.601562 11.921875 -5.40625 12.484375 -5.40625 C 12.691406 -5.40625 12.863281 -5.453125 13 -5.546875 C 13.132812 -5.640625 13.347656 -5.832031 13.640625 -6.125 C 13.878906 -6.363281 14.078125 -6.515625 14.234375 -6.578125 C 14.398438 -6.648438 14.640625 -6.6875 14.953125 -6.6875 L 22.515625 -6.6875 C 22.753906 -6.6875 22.960938 -6.609375 23.140625 -6.453125 C 23.316406 -6.304688 23.40625 -6.113281 23.40625 -5.875 C 23.40625 -5.132812 22.988281 -4.265625 22.15625 -3.265625 C 21.332031 -2.265625 20.097656 -1.398438 18.453125 -0.671875 C 16.816406 0.046875 14.851562 0.40625 12.5625 0.40625 Z M 14.125 -13.046875 L 14.125 -13.078125 C 14.125 -14.753906 13.585938 -15.59375 12.515625 -15.59375 C 11.453125 -15.59375 10.921875 -14.753906 10.921875 -13.078125 L 10.921875 -13.046875 Z M 14.125 -13.046875 "/></g></g></g><g fill="#c73659" fill-opacity="1"><g transform="translate(250.683494, 167.747274)"><g><path d="M 12.5625 0.40625 C 8.9375 0.40625 6.125 -0.476562 4.125 -2.25 C 2.125 -4.03125 1.125 -6.734375 1.125 -10.359375 L 1.125 -10.640625 C 1.175781 -14.023438 2.21875 -16.628906 4.25 -18.453125 C 6.289062 -20.285156 9.046875 -21.203125 12.515625 -21.203125 C 15.023438 -21.203125 17.140625 -20.710938 18.859375 -19.734375 C 20.578125 -18.765625 21.847656 -17.457031 22.671875 -15.8125 C 23.503906 -14.175781 23.921875 -12.34375 23.921875 -10.3125 L 23.921875 -9.125 C 23.921875 -8.832031 23.8125 -8.578125 23.59375 -8.359375 C 23.382812 -8.148438 23.132812 -8.046875 22.84375 -8.046875 L 10.921875 -8.046875 L 10.921875 -7.84375 C 10.921875 -7.007812 11.039062 -6.394531 11.28125 -6 C 11.519531 -5.601562 11.921875 -5.40625 12.484375 -5.40625 C 12.691406 -5.40625 12.863281 -5.453125 13 -5.546875 C 13.132812 -5.640625 13.347656 -5.832031 13.640625 -6.125 C 13.878906 -6.363281 14.078125 -6.515625 14.234375 -6.578125 C 14.398438 -6.648438 14.640625 -6.6875 14.953125 -6.6875 L 22.515625 -6.6875 C 22.753906 -6.6875 22.960938 -6.609375 23.140625 -6.453125 C 23.316406 -6.304688 23.40625 -6.113281 23.40625 -5.875 C 23.40625 -5.132812 22.988281 -4.265625 22.15625 -3.265625 C 21.332031 -2.265625 20.097656 -1.398438 18.453125 -0.671875 C 16.816406 0.046875 14.851562 0.40625 12.5625 0.40625 Z M 14.125 -13.046875 L 14.125 -13.078125 C 14.125 -14.753906 13.585938 -15.59375 12.515625 -15.59375 C 11.453125 -15.59375 10.921875 -14.753906 10.921875 -13.078125 L 10.921875 -13.046875 Z M 14.125 -13.046875 "/></g></g></g><g fill="#c73659" fill-opacity="1"><g transform="translate(275.601022, 167.747274)"><g><path d="M 14.6875 0 C 11.53125 0 9.070312 -0.65625 7.3125 -1.96875 C 5.5625 -3.289062 4.6875 -5.5 4.6875 -8.59375 L 4.6875 -13.796875 L 1.515625 -13.796875 C 1.222656 -13.796875 0.96875 -13.898438 0.75 -14.109375 C 0.539062 -14.328125 0.4375 -14.582031 0.4375 -14.875 L 0.4375 -19.71875 C 0.4375 -20.007812 0.539062 -20.257812 0.75 -20.46875 C 0.96875 -20.6875 1.222656 -20.796875 1.515625 -20.796875 L 4.6875 -20.796875 L 4.6875 -27.3125 C 4.6875 -27.613281 4.789062 -27.867188 5 -28.078125 C 5.207031 -28.296875 5.460938 -28.40625 5.765625 -28.40625 L 12.765625 -28.40625 C 13.054688 -28.40625 13.304688 -28.296875 13.515625 -28.078125 C 13.734375 -27.867188 13.84375 -27.613281 13.84375 -27.3125 L 13.84375 -20.796875 L 18.875 -20.796875 C 19.164062 -20.796875 19.414062 -20.6875 19.625 -20.46875 C 19.84375 -20.257812 19.953125 -20.007812 19.953125 -19.71875 L 19.953125 -14.875 C 19.953125 -14.582031 19.84375 -14.328125 19.625 -14.109375 C 19.414062 -13.898438 19.164062 -13.796875 18.875 -13.796875 L 13.84375 -13.796875 L 13.84375 -9.40625 C 13.84375 -8.070312 14.414062 -7.40625 15.5625 -7.40625 L 19.203125 -7.40625 C 19.492188 -7.40625 19.742188 -7.296875 19.953125 -7.078125 C 20.171875 -6.867188 20.28125 -6.613281 20.28125 -6.3125 L 20.28125 -1.078125 C 20.28125 -0.785156 20.171875 -0.53125 19.953125 -0.3125 C 19.742188 -0.101562 19.492188 0 19.203125 0 Z M 14.6875 0 "/></g></g></g><g fill="#a91d3a" fill-opacity="1"><g transform="translate(82.335381, 194.047298)"><g><path d="M 8.4375 0.40625 C 6.945312 0.40625 5.609375 0.125 4.421875 -0.4375 C 3.234375 -1 2.3125 -1.757812 1.65625 -2.71875 C 1.007812 -3.675781 0.6875 -4.753906 0.6875 -5.953125 C 0.6875 -9.554688 3.601562 -11.863281 9.4375 -12.875 L 13.6875 -13.5625 L 13.6875 -13.59375 C 13.6875 -14.375 13.617188 -14.898438 13.484375 -15.171875 C 13.347656 -15.453125 13.015625 -15.59375 12.484375 -15.59375 C 12.191406 -15.59375 11.9375 -15.539062 11.71875 -15.4375 C 11.507812 -15.332031 11.285156 -15.171875 11.046875 -14.953125 C 10.804688 -14.742188 10.597656 -14.582031 10.421875 -14.46875 C 10.242188 -14.363281 10.007812 -14.3125 9.71875 -14.3125 L 2.921875 -14.3125 C 2.679688 -14.3125 2.472656 -14.382812 2.296875 -14.53125 C 2.128906 -14.6875 2.046875 -14.882812 2.046875 -15.125 C 2.046875 -15.894531 2.421875 -16.757812 3.171875 -17.71875 C 3.929688 -18.675781 5.101562 -19.492188 6.6875 -20.171875 C 8.28125 -20.859375 10.238281 -21.203125 12.5625 -21.203125 C 16.132812 -21.203125 18.8125 -20.453125 20.59375 -18.953125 C 22.382812 -17.460938 23.28125 -15.332031 23.28125 -12.5625 L 23.28125 -1.078125 C 23.28125 -0.785156 23.171875 -0.53125 22.953125 -0.3125 C 22.742188 -0.101562 22.492188 0 22.203125 0 L 15.203125 0 C 14.910156 0 14.65625 -0.101562 14.4375 -0.3125 C 14.226562 -0.53125 14.125 -0.785156 14.125 -1.078125 L 14.125 -2.203125 C 13.53125 -1.398438 12.738281 -0.765625 11.75 -0.296875 C 10.769531 0.171875 9.664062 0.40625 8.4375 0.40625 Z M 11.203125 -5.515625 C 12.003906 -5.515625 12.632812 -5.769531 13.09375 -6.28125 C 13.5625 -6.789062 13.796875 -7.5625 13.796875 -8.59375 L 13.796875 -8.640625 L 11.4375 -8.125 C 10.269531 -7.851562 9.6875 -7.359375 9.6875 -6.640625 C 9.6875 -6.316406 9.816406 -6.046875 10.078125 -5.828125 C 10.347656 -5.617188 10.722656 -5.515625 11.203125 -5.515625 Z M 11.203125 -5.515625 "/></g></g></g><g fill="#a91d3a" fill-opacity="1"><g transform="translate(107.212912, 194.047298)"><g><path d="M 9.359375 0.40625 C 7.941406 0.40625 6.644531 0.078125 5.46875 -0.578125 C 4.300781 -1.234375 3.363281 -2.238281 2.65625 -3.59375 C 1.945312 -4.957031 1.59375 -6.65625 1.59375 -8.6875 L 1.59375 -19.71875 C 1.59375 -20.007812 1.695312 -20.257812 1.90625 -20.46875 C 2.125 -20.6875 2.382812 -20.796875 2.6875 -20.796875 L 10.3125 -20.796875 C 10.613281 -20.796875 10.867188 -20.6875 11.078125 -20.46875 C 11.296875 -20.257812 11.40625 -20.007812 11.40625 -19.71875 L 11.40625 -8.953125 C 11.40625 -8.234375 11.578125 -7.6875 11.921875 -7.3125 C 12.265625 -6.945312 12.757812 -6.765625 13.40625 -6.765625 C 14.039062 -6.765625 14.53125 -6.945312 14.875 -7.3125 C 15.226562 -7.6875 15.40625 -8.234375 15.40625 -8.953125 L 15.40625 -19.71875 C 15.40625 -20.007812 15.507812 -20.257812 15.71875 -20.46875 C 15.9375 -20.6875 16.191406 -20.796875 16.484375 -20.796875 L 24.078125 -20.796875 C 24.367188 -20.796875 24.617188 -20.6875 24.828125 -20.46875 C 25.046875 -20.257812 25.15625 -20.007812 25.15625 -19.71875 L 25.15625 -1.078125 C 25.15625 -0.785156 25.046875 -0.53125 24.828125 -0.3125 C 24.617188 -0.101562 24.367188 0 24.078125 0 L 17.078125 0 C 16.785156 0 16.53125 -0.101562 16.3125 -0.3125 C 16.101562 -0.53125 16 -0.785156 16 -1.078125 L 16 -2.40625 C 15.363281 -1.46875 14.46875 -0.765625 13.3125 -0.296875 C 12.164062 0.171875 10.847656 0.40625 9.359375 0.40625 Z M 9.359375 0.40625 "/></g></g></g><g fill="#a91d3a" fill-opacity="1"><g transform="translate(134.170235, 194.047298)"><g><path d="M 14.6875 0 C 11.53125 0 9.070312 -0.65625 7.3125 -1.96875 C 5.5625 -3.289062 4.6875 -5.5 4.6875 -8.59375 L 4.6875 -13.796875 L 1.515625 -13.796875 C 1.222656 -13.796875 0.96875 -13.898438 0.75 -14.109375 C 0.539062 -14.328125 0.4375 -14.582031 0.4375 -14.875 L 0.4375 -19.71875 C 0.4375 -20.007812 0.539062 -20.257812 0.75 -20.46875 C 0.96875 -20.6875 1.222656 -20.796875 1.515625 -20.796875 L 4.6875 -20.796875 L 4.6875 -27.3125 C 4.6875 -27.613281 4.789062 -27.867188 5 -28.078125 C 5.207031 -28.296875 5.460938 -28.40625 5.765625 -28.40625 L 12.765625 -28.40625 C 13.054688 -28.40625 13.304688 -28.296875 13.515625 -28.078125 C 13.734375 -27.867188 13.84375 -27.613281 13.84375 -27.3125 L 13.84375 -20.796875 L 18.875 -20.796875 C 19.164062 -20.796875 19.414062 -20.6875 19.625 -20.46875 C 19.84375 -20.257812 19.953125 -20.007812 19.953125 -19.71875 L 19.953125 -14.875 C 19.953125 -14.582031 19.84375 -14.328125 19.625 -14.109375 C 19.414062 -13.898438 19.164062 -13.796875 18.875 -13.796875 L 13.84375 -13.796875 L 13.84375 -9.40625 C 13.84375 -8.070312 14.414062 -7.40625 15.5625 -7.40625 L 19.203125 -7.40625 C 19.492188 -7.40625 19.742188 -7.296875 19.953125 -7.078125 C 20.171875 -6.867188 20.28125 -6.613281 20.28125 -6.3125 L 20.28125 -1.078125 C 20.28125 -0.785156 20.171875 -0.53125 19.953125 -0.3125 C 19.742188 -0.101562 19.492188 0 19.203125 0 Z M 14.6875 0 "/></g></g></g><g fill="#a91d3a" fill-opacity="1"><g transform="translate(155.448119, 194.047298)"><g><path d="M 12.84375 0.40625 C 5.507812 0.40625 1.640625 -2.566406 1.234375 -8.515625 C 1.210938 -8.921875 1.203125 -9.550781 1.203125 -10.40625 C 1.203125 -11.257812 1.210938 -11.882812 1.234375 -12.28125 C 1.421875 -15.1875 2.523438 -17.398438 4.546875 -18.921875 C 6.578125 -20.441406 9.34375 -21.203125 12.84375 -21.203125 C 16.332031 -21.203125 19.085938 -20.441406 21.109375 -18.921875 C 23.140625 -17.398438 24.25 -15.1875 24.4375 -12.28125 C 24.488281 -11.476562 24.515625 -10.851562 24.515625 -10.40625 C 24.515625 -9.945312 24.488281 -9.316406 24.4375 -8.515625 C 24.039062 -2.566406 20.175781 0.40625 12.84375 0.40625 Z M 12.84375 -6 C 13.5625 -6 14.023438 -6.191406 14.234375 -6.578125 C 14.453125 -6.960938 14.585938 -7.675781 14.640625 -8.71875 C 14.671875 -8.988281 14.6875 -9.550781 14.6875 -10.40625 C 14.6875 -11.257812 14.671875 -11.816406 14.640625 -12.078125 C 14.554688 -13.085938 14.40625 -13.789062 14.1875 -14.1875 C 13.976562 -14.59375 13.53125 -14.796875 12.84375 -14.796875 C 12.144531 -14.796875 11.6875 -14.59375 11.46875 -14.1875 C 11.257812 -13.789062 11.117188 -13.085938 11.046875 -12.078125 L 11 -10.40625 L 11.046875 -8.71875 C 11.097656 -7.675781 11.226562 -6.960938 11.4375 -6.578125 C 11.65625 -6.191406 12.125 -6 12.84375 -6 Z M 12.84375 -6 "/></g></g></g><g fill="#a91d3a" fill-opacity="1"><g transform="translate(181.12557, 194.047298)"><g><path d="M 2.875 0 C 2.582031 0 2.328125 -0.101562 2.109375 -0.3125 C 1.898438 -0.53125 1.796875 -0.785156 1.796875 -1.078125 L 1.796875 -19.71875 C 1.796875 -20.007812 1.898438 -20.257812 2.109375 -20.46875 C 2.328125 -20.6875 2.582031 -20.796875 2.875 -20.796875 L 9.484375 -20.796875 C 9.773438 -20.796875 10.023438 -20.6875 10.234375 -20.46875 C 10.453125 -20.257812 10.5625 -20.007812 10.5625 -19.71875 L 10.5625 -18.40625 C 11.125 -19.144531 11.9375 -19.796875 13 -20.359375 C 14.0625 -20.921875 15.257812 -21.203125 16.59375 -21.203125 C 19.445312 -21.203125 21.394531 -20.109375 22.4375 -17.921875 C 23.082031 -18.847656 23.960938 -19.625 25.078125 -20.25 C 26.203125 -20.882812 27.363281 -21.203125 28.5625 -21.203125 C 30.71875 -21.203125 32.484375 -20.460938 33.859375 -18.984375 C 35.234375 -17.503906 35.921875 -15.269531 35.921875 -12.28125 L 35.921875 -1.078125 C 35.921875 -0.785156 35.8125 -0.53125 35.59375 -0.3125 C 35.382812 -0.101562 35.132812 0 34.84375 0 L 27.796875 0 C 27.503906 0 27.25 -0.101562 27.03125 -0.3125 C 26.820312 -0.53125 26.71875 -0.785156 26.71875 -1.078125 L 26.71875 -12.078125 C 26.71875 -12.722656 26.578125 -13.210938 26.296875 -13.546875 C 26.015625 -13.878906 25.625 -14.046875 25.125 -14.046875 C 24.613281 -14.046875 24.222656 -13.878906 23.953125 -13.546875 C 23.691406 -13.210938 23.5625 -12.722656 23.5625 -12.078125 L 23.5625 -1.078125 C 23.5625 -0.785156 23.453125 -0.53125 23.234375 -0.3125 C 23.023438 -0.101562 22.773438 0 22.484375 0 L 15.4375 0 C 15.144531 0 14.890625 -0.101562 14.671875 -0.3125 C 14.460938 -0.53125 14.359375 -0.785156 14.359375 -1.078125 L 14.359375 -12.078125 C 14.359375 -12.722656 14.21875 -13.210938 13.9375 -13.546875 C 13.65625 -13.878906 13.265625 -14.046875 12.765625 -14.046875 C 12.253906 -14.046875 11.859375 -13.867188 11.578125 -13.515625 C 11.296875 -13.171875 11.15625 -12.691406 11.15625 -12.078125 L 11.15625 -1.078125 C 11.15625 -0.785156 11.046875 -0.53125 10.828125 -0.3125 C 10.617188 -0.101562 10.367188 0 10.078125 0 Z M 2.875 0 "/></g></g></g><g fill="#a91d3a" fill-opacity="1"><g transform="translate(218.641841, 194.047298)"><g><path d="M 8.4375 0.40625 C 6.945312 0.40625 5.609375 0.125 4.421875 -0.4375 C 3.234375 -1 2.3125 -1.757812 1.65625 -2.71875 C 1.007812 -3.675781 0.6875 -4.753906 0.6875 -5.953125 C 0.6875 -9.554688 3.601562 -11.863281 9.4375 -12.875 L 13.6875 -13.5625 L 13.6875 -13.59375 C 13.6875 -14.375 13.617188 -14.898438 13.484375 -15.171875 C 13.347656 -15.453125 13.015625 -15.59375 12.484375 -15.59375 C 12.191406 -15.59375 11.9375 -15.539062 11.71875 -15.4375 C 11.507812 -15.332031 11.285156 -15.171875 11.046875 -14.953125 C 10.804688 -14.742188 10.597656 -14.582031 10.421875 -14.46875 C 10.242188 -14.363281 10.007812 -14.3125 9.71875 -14.3125 L 2.921875 -14.3125 C 2.679688 -14.3125 2.472656 -14.382812 2.296875 -14.53125 C 2.128906 -14.6875 2.046875 -14.882812 2.046875 -15.125 C 2.046875 -15.894531 2.421875 -16.757812 3.171875 -17.71875 C 3.929688 -18.675781 5.101562 -19.492188 6.6875 -20.171875 C 8.28125 -20.859375 10.238281 -21.203125 12.5625 -21.203125 C 16.132812 -21.203125 18.8125 -20.453125 20.59375 -18.953125 C 22.382812 -17.460938 23.28125 -15.332031 23.28125 -12.5625 L 23.28125 -1.078125 C 23.28125 -0.785156 23.171875 -0.53125 22.953125 -0.3125 C 22.742188 -0.101562 22.492188 0 22.203125 0 L 15.203125 0 C 14.910156 0 14.65625 -0.101562 14.4375 -0.3125 C 14.226562 -0.53125 14.125 -0.785156 14.125 -1.078125 L 14.125 -2.203125 C 13.53125 -1.398438 12.738281 -0.765625 11.75 -0.296875 C 10.769531 0.171875 9.664062 0.40625 8.4375 0.40625 Z M 11.203125 -5.515625 C 12.003906 -5.515625 12.632812 -5.769531 13.09375 -6.28125 C 13.5625 -6.789062 13.796875 -7.5625 13.796875 -8.59375 L 13.796875 -8.640625 L 11.4375 -8.125 C 10.269531 -7.851562 9.6875 -7.359375 9.6875 -6.640625 C 9.6875 -6.316406 9.816406 -6.046875 10.078125 -5.828125 C 10.347656 -5.617188 10.722656 -5.515625 11.203125 -5.515625 Z M 11.203125 -5.515625 "/></g></g></g><g fill="#a91d3a" fill-opacity="1"><g transform="translate(243.519372, 194.047298)"><g><path d="M 14.6875 0 C 11.53125 0 9.070312 -0.65625 7.3125 -1.96875 C 5.5625 -3.289062 4.6875 -5.5 4.6875 -8.59375 L 4.6875 -13.796875 L 1.515625 -13.796875 C 1.222656 -13.796875 0.96875 -13.898438 0.75 -14.109375 C 0.539062 -14.328125 0.4375 -14.582031 0.4375 -14.875 L 0.4375 -19.71875 C 0.4375 -20.007812 0.539062 -20.257812 0.75 -20.46875 C 0.96875 -20.6875 1.222656 -20.796875 1.515625 -20.796875 L 4.6875 -20.796875 L 4.6875 -27.3125 C 4.6875 -27.613281 4.789062 -27.867188 5 -28.078125 C 5.207031 -28.296875 5.460938 -28.40625 5.765625 -28.40625 L 12.765625 -28.40625 C 13.054688 -28.40625 13.304688 -28.296875 13.515625 -28.078125 C 13.734375 -27.867188 13.84375 -27.613281 13.84375 -27.3125 L 13.84375 -20.796875 L 18.875 -20.796875 C 19.164062 -20.796875 19.414062 -20.6875 19.625 -20.46875 C 19.84375 -20.257812 19.953125 -20.007812 19.953125 -19.71875 L 19.953125 -14.875 C 19.953125 -14.582031 19.84375 -14.328125 19.625 -14.109375 C 19.414062 -13.898438 19.164062 -13.796875 18.875 -13.796875 L 13.84375 -13.796875 L 13.84375 -9.40625 C 13.84375 -8.070312 14.414062 -7.40625 15.5625 -7.40625 L 19.203125 -7.40625 C 19.492188 -7.40625 19.742188 -7.296875 19.953125 -7.078125 C 20.171875 -6.867188 20.28125 -6.613281 20.28125 -6.3125 L 20.28125 -1.078125 C 20.28125 -0.785156 20.171875 -0.53125 19.953125 -0.3125 C 19.742188 -0.101562 19.492188 0 19.203125 0 Z M 14.6875 0 "/></g></g></g><g fill="#a91d3a" fill-opacity="1"><g transform="translate(264.797256, 194.047298)"><g><path d="M 12.5625 0.40625 C 8.9375 0.40625 6.125 -0.476562 4.125 -2.25 C 2.125 -4.03125 1.125 -6.734375 1.125 -10.359375 L 1.125 -10.640625 C 1.175781 -14.023438 2.21875 -16.628906 4.25 -18.453125 C 6.289062 -20.285156 9.046875 -21.203125 12.515625 -21.203125 C 15.023438 -21.203125 17.140625 -20.710938 18.859375 -19.734375 C 20.578125 -18.765625 21.847656 -17.457031 22.671875 -15.8125 C 23.503906 -14.175781 23.921875 -12.34375 23.921875 -10.3125 L 23.921875 -9.125 C 23.921875 -8.832031 23.8125 -8.578125 23.59375 -8.359375 C 23.382812 -8.148438 23.132812 -8.046875 22.84375 -8.046875 L 10.921875 -8.046875 L 10.921875 -7.84375 C 10.921875 -7.007812 11.039062 -6.394531 11.28125 -6 C 11.519531 -5.601562 11.921875 -5.40625 12.484375 -5.40625 C 12.691406 -5.40625 12.863281 -5.453125 13 -5.546875 C 13.132812 -5.640625 13.347656 -5.832031 13.640625 -6.125 C 13.878906 -6.363281 14.078125 -6.515625 14.234375 -6.578125 C 14.398438 -6.648438 14.640625 -6.6875 14.953125 -6.6875 L 22.515625 -6.6875 C 22.753906 -6.6875 22.960938 -6.609375 23.140625 -6.453125 C 23.316406 -6.304688 23.40625 -6.113281 23.40625 -5.875 C 23.40625 -5.132812 22.988281 -4.265625 22.15625 -3.265625 C 21.332031 -2.265625 20.097656 -1.398438 18.453125 -0.671875 C 16.816406 0.046875 14.851562 0.40625 12.5625 0.40625 Z M 14.125 -13.046875 L 14.125 -13.078125 C 14.125 -14.753906 13.585938 -15.59375 12.515625 -15.59375 C 11.453125 -15.59375 10.921875 -14.753906 10.921875 -13.078125 L 10.921875 -13.046875 Z M 14.125 -13.046875 "/></g></g></g><g fill="#a91d3a" fill-opacity="1"><g transform="translate(289.714785, 194.047298)"><g><path d="M 2.765625 0 C 2.460938 0 2.207031 -0.101562 2 -0.3125 C 1.789062 -0.53125 1.6875 -0.785156 1.6875 -1.078125 L 1.6875 -8.046875 C 1.6875 -8.335938 1.789062 -8.585938 2 -8.796875 C 2.207031 -9.015625 2.460938 -9.125 2.765625 -9.125 L 9.71875 -9.125 C 10.007812 -9.125 10.257812 -9.015625 10.46875 -8.796875 C 10.6875 -8.585938 10.796875 -8.335938 10.796875 -8.046875 L 10.796875 -1.078125 C 10.796875 -0.785156 10.6875 -0.53125 10.46875 -0.3125 C 10.257812 -0.101562 10.007812 0 9.71875 0 Z M 2.765625 0 "/></g></g></g></svg>